#Comment line ignore any data following # character 
#Hierarchical Translation and Rotation (.htr) file 
[Header]	
#Header keywords are followed by a single value 
FileType HTR		#Single word string
DataType HTRS		#Translation followed by rotation and scale data
FileVersion 1		#integer
NumSegments 84		#integer
NumFrames 2		#integer
DataFrameRate 30		#integer, data frame rate in this file
EulerRotationOrder ZYX
CalibrationUnits mm
RotationUnits Degrees
GlobalAxisofGravity Y
BoneLengthAxis Y
ScaleFactor 1.00
[SegmentNames&Hierarchy]
#CHILD	PARENT
MASTER GLOBAL
root MASTER
chest root
L_mid_tent01 root
R_mid_tent01 root
spine01 root
Bip01_Neck chest
L_humerus chest
R_humerus chest
weapon_bone chest
Bip01_Head Bip01_Neck
eye_left_bone Bip01_Head
eye_right_bone Bip01_Head
L_forearm L_humerus
L_front_hand L_forearm
L_weapon_bone L_forearm
L_front_hand01_01 L_front_hand
L_front_hand02_01 L_front_hand
L_front_hand03_01 L_front_hand
L_front_hand01_02 L_front_hand01_01
L_front_hand02_02 L_front_hand02_01
L_front_hand03_02 L_front_hand03_01
R_forearm R_humerus
R_front_hand R_forearm
R_weapon_bone R_forearm
R_front_hand01_01 R_front_hand
R_front_hand02_01 R_front_hand
R_front_hand03_01 R_front_hand
R_front_hand01_02 R_front_hand01_01
R_front_hand02_02 R_front_hand02_01
R_front_hand03_02 R_front_hand03_01
null_rope01_connect L_mid_tent01
Rope1_Seg01 null_rope01_connect
Rope1_Seg02 Rope1_Seg01
Rope1_Seg03 Rope1_Seg02
Rope1_Seg04 Rope1_Seg03
Rope1_Seg05 Rope1_Seg04
Rope1_Seg06 Rope1_Seg05
Rope1_Seg07 Rope1_Seg06
Rope1_Seg09 Rope1_Seg07
L_mid_hand01 Rope1_Seg09
L_mid_hand02 Rope1_Seg09
L_mid_hand03 Rope1_Seg09
null_rope02_connect R_mid_tent01
Rope2_Seg01 null_rope02_connect
Rope2_Seg02 Rope2_Seg01
Rope2_Seg03 Rope2_Seg02
Rope2_Seg04 Rope2_Seg03
Rope2_Seg05 Rope2_Seg04
Rope2_Seg06 Rope2_Seg05
Rope2_Seg07 Rope2_Seg06
Rope2_Seg09 Rope2_Seg07
R_mid_hand01 Rope2_Seg09
R_mid_hand02 Rope2_Seg09
R_mid_hand03 Rope2_Seg09
spine02 spine01
spine03 spine02
pelvis spine03
null_rope03_connect pelvis
null_rope04_connect pelvis
Rope3_Seg01 null_rope03_connect
Rope3_Seg02 Rope3_Seg01
Rope3_Seg03 Rope3_Seg02
Rope3_Seg04 Rope3_Seg03
Rope3_Seg05 Rope3_Seg04
Rope3_Seg06 Rope3_Seg05
Rope3_Seg07 Rope3_Seg06
Rope3_Seg08 Rope3_Seg07
Rope3_Seg09 Rope3_Seg08
R_rear_hand01 Rope3_Seg09
R_rear_hand02 Rope3_Seg09
R_rear_hand03 Rope3_Seg09
Rope4_Seg01 null_rope04_connect
Rope4_Seg02 Rope4_Seg01
Rope4_Seg03 Rope4_Seg02
Rope4_Seg04 Rope4_Seg03
Rope4_Seg05 Rope4_Seg04
Rope4_Seg06 Rope4_Seg05
Rope4_Seg07 Rope4_Seg06
Rope4_Seg08 Rope4_Seg07
Rope4_Seg09 Rope4_Seg08
L_rear_hand01 Rope4_Seg09
L_rear_hand02 Rope4_Seg09
L_rear_hand03 Rope4_Seg09
[BasePosition]
#SegmentName Tx, Ty, Tz, Rx, Ry, Rz, BoneLength
MASTER 0.000000 0.000000 0.000000 -90.000000 0.000000 0.000000 10.000000 
root 0.000000 0.000000 0.000000 0.000000 0.000000 0.000000 10.000000 
chest 0.000000 0.000000 0.000000 0.000000 0.000000 0.000000 10.000000 
L_mid_tent01 0.000000 0.000000 0.000000 0.000000 0.000000 0.000000 10.000000 
R_mid_tent01 0.000000 0.000000 0.000000 0.000000 0.000000 0.000000 10.000000 
spine01 0.000000 0.000000 0.000000 0.000000 0.000000 0.000000 10.000000 
Bip01_Neck 0.000000 0.000000 0.000000 0.000000 0.000000 0.000000 10.000000 
L_humerus 0.000000 0.000000 0.000000 0.000000 0.000000 0.000000 10.000000 
R_humerus 0.000000 0.000000 0.000000 0.000000 0.000000 0.000000 10.000000 
weapon_bone 0.000000 0.000000 0.000000 0.000000 0.000000 0.000000 10.000000 
Bip01_Head 0.000000 0.000000 0.000000 0.000000 0.000000 0.000000 10.000000 
eye_left_bone 0.000000 0.000000 0.000000 0.000000 0.000000 0.000000 10.000000 
eye_right_bone 0.000000 0.000000 0.000000 0.000000 0.000000 0.000000 10.000000 
L_forearm 0.000000 0.000000 0.000000 0.000000 0.000000 0.000000 10.000000 
L_front_hand 0.000000 0.000000 0.000000 0.000000 0.000000 0.000000 10.000000 
L_weapon_bone 0.000000 0.000000 0.000000 0.000000 0.000000 0.000000 10.000000 
L_front_hand01_01 0.000000 0.000000 0.000000 0.000000 0.000000 0.000000 10.000000 
L_front_hand02_01 0.000000 0.000000 0.000000 0.000000 0.000000 0.000000 10.000000 
L_front_hand03_01 0.000000 0.000000 0.000000 0.000000 0.000000 0.000000 10.000000 
L_front_hand01_02 0.000000 0.000000 0.000000 0.000000 0.000000 0.000000 10.000000 
L_front_hand02_02 0.000000 0.000000 0.000000 0.000000 0.000000 0.000000 10.000000 
L_front_hand03_02 0.000000 0.000000 0.000000 0.000000 0.000000 0.000000 10.000000 
R_forearm 0.000000 0.000000 0.000000 0.000000 0.000000 0.000000 10.000000 
R_front_hand 0.000000 0.000000 0.000000 0.000000 0.000000 0.000000 10.000000 
R_weapon_bone 0.000000 0.000000 0.000000 0.000000 0.000000 0.000000 10.000000 
R_front_hand01_01 0.000000 0.000000 0.000000 0.000000 0.000000 0.000000 10.000000 
R_front_hand02_01 0.000000 0.000000 0.000000 0.000000 0.000000 0.000000 10.000000 
R_front_hand03_01 0.000000 0.000000 0.000000 0.000000 0.000000 0.000000 10.000000 
R_front_hand01_02 0.000000 0.000000 0.000000 0.000000 0.000000 0.000000 10.000000 
R_front_hand02_02 0.000000 0.000000 0.000000 0.000000 0.000000 0.000000 10.000000 
R_front_hand03_02 0.000000 0.000000 0.000000 0.000000 0.000000 0.000000 10.000000 
null_rope01_connect 0.000000 0.000000 0.000000 0.000000 0.000000 0.000000 10.000000 
Rope1_Seg01 0.000000 0.000000 0.000000 0.000000 0.000000 0.000000 10.000000 
Rope1_Seg02 0.000000 0.000000 0.000000 0.000000 0.000000 0.000000 10.000000 
Rope1_Seg03 0.000000 0.000000 0.000000 0.000000 0.000000 0.000000 10.000000 
Rope1_Seg04 0.000000 0.000000 0.000000 0.000000 0.000000 0.000000 10.000000 
Rope1_Seg05 0.000000 0.000000 0.000000 0.000000 0.000000 0.000000 10.000000 
Rope1_Seg06 0.000000 0.000000 0.000000 0.000000 0.000000 0.000000 10.000000 
Rope1_Seg07 0.000000 0.000000 0.000000 0.000000 0.000000 0.000000 10.000000 
Rope1_Seg09 0.000000 0.000000 0.000000 0.000000 0.000000 0.000000 10.000000 
L_mid_hand01 0.000000 0.000000 0.000000 0.000000 0.000000 0.000000 10.000000 
L_mid_hand02 0.000000 0.000000 0.000000 0.000000 0.000000 0.000000 10.000000 
L_mid_hand03 0.000000 0.000000 0.000000 0.000000 0.000000 0.000000 10.000000 
null_rope02_connect 0.000000 0.000000 0.000000 0.000000 0.000000 0.000000 10.000000 
Rope2_Seg01 0.000000 0.000000 0.000000 0.000000 0.000000 0.000000 10.000000 
Rope2_Seg02 0.000000 0.000000 0.000000 0.000000 0.000000 0.000000 10.000000 
Rope2_Seg03 0.000000 0.000000 0.000000 0.000000 0.000000 0.000000 10.000000 
Rope2_Seg04 0.000000 0.000000 0.000000 0.000000 0.000000 0.000000 10.000000 
Rope2_Seg05 0.000000 0.000000 0.000000 0.000000 0.000000 0.000000 10.000000 
Rope2_Seg06 0.000000 0.000000 0.000000 0.000000 0.000000 0.000000 10.000000 
Rope2_Seg07 0.000000 0.000000 0.000000 0.000000 0.000000 0.000000 10.000000 
Rope2_Seg09 0.000000 0.000000 0.000000 0.000000 0.000000 0.000000 10.000000 
R_mid_hand01 0.000000 0.000000 0.000000 0.000000 0.000000 0.000000 10.000000 
R_mid_hand02 0.000000 0.000000 0.000000 0.000000 0.000000 0.000000 10.000000 
R_mid_hand03 0.000000 0.000000 0.000000 0.000000 0.000000 0.000000 10.000000 
spine02 0.000000 0.000000 0.000000 0.000000 0.000000 0.000000 10.000000 
spine03 0.000000 0.000000 0.000000 0.000000 0.000000 0.000000 10.000000 
pelvis 0.000000 0.000000 0.000000 0.000000 0.000000 0.000000 10.000000 
null_rope03_connect 0.000000 0.000000 0.000000 0.000000 0.000000 0.000000 10.000000 
null_rope04_connect 0.000000 0.000000 0.000000 0.000000 0.000000 0.000000 10.000000 
Rope3_Seg01 0.000000 0.000000 0.000000 0.000000 0.000000 0.000000 10.000000 
Rope3_Seg02 0.000000 0.000000 0.000000 0.000000 0.000000 0.000000 10.000000 
Rope3_Seg03 0.000000 0.000000 0.000000 0.000000 0.000000 0.000000 10.000000 
Rope3_Seg04 0.000000 0.000000 0.000000 0.000000 0.000000 0.000000 10.000000 
Rope3_Seg05 0.000000 0.000000 0.000000 0.000000 0.000000 0.000000 10.000000 
Rope3_Seg06 0.000000 0.000000 0.000000 0.000000 0.000000 0.000000 10.000000 
Rope3_Seg07 0.000000 0.000000 0.000000 0.000000 0.000000 0.000000 10.000000 
Rope3_Seg08 0.000000 0.000000 0.000000 0.000000 0.000000 0.000000 10.000000 
Rope3_Seg09 0.000000 0.000000 0.000000 0.000000 0.000000 0.000000 10.000000 
R_rear_hand01 0.000000 0.000000 0.000000 0.000000 0.000000 0.000000 10.000000 
R_rear_hand02 0.000000 0.000000 0.000000 0.000000 0.000000 0.000000 10.000000 
R_rear_hand03 0.000000 0.000000 0.000000 0.000000 0.000000 0.000000 10.000000 
Rope4_Seg01 0.000000 0.000000 0.000000 0.000000 0.000000 0.000000 10.000000 
Rope4_Seg02 0.000000 0.000000 0.000000 0.000000 0.000000 0.000000 10.000000 
Rope4_Seg03 0.000000 0.000000 0.000000 0.000000 0.000000 0.000000 10.000000 
Rope4_Seg04 0.000000 0.000000 0.000000 0.000000 0.000000 0.000000 10.000000 
Rope4_Seg05 0.000000 0.000000 0.000000 0.000000 0.000000 0.000000 10.000000 
Rope4_Seg06 0.000000 0.000000 0.000000 0.000000 0.000000 0.000000 10.000000 
Rope4_Seg07 0.000000 0.000000 0.000000 0.000000 0.000000 0.000000 10.000000 
Rope4_Seg08 0.000000 0.000000 0.000000 0.000000 0.000000 0.000000 10.000000 
Rope4_Seg09 0.000000 0.000000 0.000000 0.000000 0.000000 0.000000 10.000000 
L_rear_hand01 0.000000 0.000000 0.000000 0.000000 0.000000 0.000000 10.000000 
L_rear_hand02 0.000000 0.000000 0.000000 0.000000 0.000000 0.000000 10.000000 
L_rear_hand03 0.000000 0.000000 0.000000 0.000000 0.000000 0.000000 10.000000 
#Beginning of Data. Separated by tabs
#Fr	Tx	Ty	Tz	Rx	Ry	Rz	SF
[MASTER]
28 0.000000 0.000000 0.000000 0.001660 0.001660 0.001660 0.000000
29 0.000000 0.000000 0.000000 0.001660 0.001660 0.001660 0.000000
[root]
28 -24.011810 -55.927277 1521.764526 -91.629700 -27.676081 -90.148109 1522.981079
29 -20.596035 -58.926689 1512.897461 -91.629700 -27.676081 -90.148109 1514.184692
[chest]
28 -84.512650 -34.090519 0.000000 -1.888051 0.943089 -178.206696 91.129311
29 -84.512650 -34.090519 0.000000 -1.888050 0.943089 -178.206696 91.129311
[L_mid_tent01]
28 27.299627 22.177658 -249.918320 3.862628 36.229202 81.347610 252.381241
29 27.299633 22.177662 -249.918320 3.862628 36.229202 81.347610 252.381241
[R_mid_tent01]
28 23.228794 24.509907 226.238495 160.432037 -47.061241 87.899765 228.744751
29 23.228794 24.509907 226.238495 160.432037 -47.061241 87.899765 228.744751
[spine01]
28 -0.361383 -0.195265 0.000000 0.001845 0.001451 13.654368 0.410763
29 -0.361383 -0.195265 0.000000 0.001845 0.001451 13.654368 0.410763
[Bip01_Neck]
28 165.484543 71.581718 0.000119 176.643677 -1.657967 43.431911 180.302734
29 165.484543 71.581718 0.000119 176.643677 -1.657967 43.431911 180.302734
[L_humerus]
28 -13.983130 -135.272980 -120.471481 156.317398 70.210068 -112.010254 181.680161
29 -13.983130 -135.272980 -120.471481 156.317398 70.210068 -112.010254 181.680161
[R_humerus]
28 -13.983309 -135.273102 125.287651 -172.382263 -66.903831 -92.553993 184.909012
29 -13.983309 -135.273102 125.287651 -172.382263 -66.903831 -92.553993 184.909012
[weapon_bone]
28 235.964890 -300.705902 0.000000 0.000000 -89.951546 -128.212341 382.234833
29 235.964890 -300.705902 0.000000 0.000000 -89.951546 -128.212341 382.234833
[Bip01_Head]
28 213.327026 186.042023 7.559232 5.200446 6.151311 -43.834991 283.155792
29 213.327026 186.042023 7.559228 5.200446 6.151311 -43.834991 283.155792
[eye_left_bone]
28 -24.626970 125.451866 -64.772606 0.000000 -90.000000 -99.840431 143.318359
29 -24.626970 125.451866 -64.772606 0.000000 -90.000000 -99.840431 143.318359
[eye_right_bone]
28 -24.626970 125.451866 64.327362 0.000000 -89.965736 80.156380 143.117676
29 -24.626970 125.451866 64.327362 0.000000 -89.965736 80.156380 143.117676
[L_forearm]
28 322.776093 0.000000 -0.000119 0.000119 -0.002344 -95.807457 322.776093
29 322.776093 0.000000 -0.000119 0.000119 -0.002344 -95.807457 322.776093
[L_front_hand]
28 241.149185 -0.042021 -3.300071 -178.667953 -1.835447 -27.422350 241.171753
29 241.149185 -0.042021 -3.300071 -178.667953 -1.835447 -27.422350 241.171753
[L_weapon_bone]
28 156.183838 0.000000 0.000000 0.000014 0.000007 0.000001 156.183838
29 156.183838 0.000000 0.000000 0.000014 0.000007 0.000001 156.183838
[L_front_hand01_01]
28 86.095154 20.947098 -0.655860 -0.351864 -0.488251 73.756920 88.609184
29 86.095154 20.947098 -0.655860 -0.358124 -0.483585 74.301994 88.609184
[L_front_hand02_01]
28 86.935165 -11.437475 24.513514 151.937759 -59.151085 -58.507710 91.046425
29 86.935165 -11.437475 24.513514 152.741364 -59.405804 -59.444748 91.046425
[L_front_hand03_01]
28 86.637497 -14.123976 -20.424902 -151.626480 57.374596 -59.999687 90.126129
29 86.637497 -14.123976 -20.424902 -152.381134 57.628067 -60.890842 90.126129
[L_front_hand01_02]
28 71.020905 -0.000179 0.000030 0.000325 -0.002325 -105.893082 71.020905
29 71.020905 -0.000179 0.000030 0.000326 -0.002325 -105.948112 71.020905
[L_front_hand02_02]
28 71.020927 -0.000119 0.000060 0.000325 -0.002325 -105.893082 71.020927
29 71.020927 -0.000119 0.000060 0.000326 -0.002325 -105.948112 71.020927
[L_front_hand03_02]
28 71.020905 -0.000060 0.000060 0.000325 -0.002325 -105.893082 71.020905
29 71.020905 -0.000060 0.000060 0.000326 -0.002325 -105.948112 71.020905
[R_forearm]
28 322.776428 -0.000060 0.000030 0.209504 0.012586 -94.339050 322.776428
29 322.776428 -0.000060 0.000030 0.209504 0.012586 -94.339050 322.776428
[R_front_hand]
28 238.847015 -0.006795 2.210259 -2.635298 -10.645461 -26.312506 238.857239
29 238.847015 -0.006795 2.210259 -2.635298 -10.645461 -26.312506 238.857239
[R_weapon_bone]
28 155.664093 0.002503 -0.000030 0.003487 0.001180 -90.988930 155.664078
29 155.664093 0.002503 -0.000030 0.003487 0.001180 -90.988930 155.664078
[R_front_hand01_01]
28 87.624611 14.231146 22.918642 -154.633499 -59.950619 61.746044 91.683487
29 87.624611 14.231146 22.918642 -154.633514 -59.950626 61.746063 91.683487
[R_front_hand02_01]
28 89.356956 14.367283 -19.491137 154.602661 58.302849 63.744389 92.579636
29 89.356956 14.367283 -19.491137 154.602661 58.302864 63.744389 92.579636
[R_front_hand03_01]
28 87.286232 -22.307278 -0.143439 0.162155 -0.423168 -75.767921 90.091743
29 87.286232 -22.307278 -0.143439 0.162155 -0.423168 -75.767921 90.091743
[R_front_hand01_02]
28 71.020905 0.000060 0.000119 0.002323 -0.000334 106.381714 71.020905
29 71.020905 0.000060 0.000119 0.002323 -0.000334 106.381714 71.020905
[R_front_hand02_02]
28 71.020844 -0.000030 -0.000119 0.002323 -0.000334 106.381714 71.020836
29 71.020844 -0.000030 -0.000119 0.002323 -0.000334 106.381714 71.020836
[R_front_hand03_02]
28 71.020905 0.000000 0.000030 0.002323 -0.000334 106.381714 71.020905
29 71.020905 0.000000 0.000030 0.002323 -0.000334 106.381714 71.020905
[null_rope01_connect]
28 328.732483 0.000000 -0.000238 -137.564545 -51.925488 175.258728 328.732483
29 328.732483 0.000000 -0.000238 -137.564545 -51.925488 175.258713 328.732483
[Rope1_Seg01]
28 -0.000038 -0.000114 0.000113 106.448357 47.896259 128.421661 0.000165
29 -0.000038 -0.000114 0.000113 107.983398 46.768230 130.732666 0.000165
[Rope1_Seg02]
28 139.999863 -0.000179 0.000000 -0.178464 -5.824273 4.220958 139.999863
29 139.999863 -0.000179 0.000000 -0.166621 -6.870439 4.040579 139.999863
[Rope1_Seg03]
28 139.999924 0.000060 -0.000060 -0.639722 -7.807734 5.177800 139.999924
29 139.999924 0.000060 -0.000060 -0.931848 -9.772337 4.872876 139.999924
[Rope1_Seg04]
28 139.999924 -0.000060 -0.000119 -2.378449 -12.762535 8.372972 139.999924
29 139.999924 -0.000060 -0.000119 -3.679068 -15.673237 7.645445 139.999924
[Rope1_Seg05]
28 139.999832 0.000119 -0.000060 -4.585730 -17.799164 18.298479 139.999832
29 139.999832 0.000119 -0.000060 -2.482509 -15.225024 17.581949 139.999832
[Rope1_Seg06]
28 139.999954 0.000119 -0.000060 -1.726237 -6.825544 6.499933 139.999954
29 139.999954 0.000119 -0.000060 0.002753 -5.743033 6.794567 139.999954
[Rope1_Seg07]
28 139.999985 0.000060 0.000000 -1.369566 -3.456581 2.957846 139.999985
29 139.999985 0.000060 0.000000 -0.370433 -3.041035 3.203014 139.999985
[Rope1_Seg09]
28 121.602913 0.000119 -0.000089 -89.793175 -1.359789 0.847147 121.602913
29 121.602913 0.000119 -0.000089 -89.793175 -1.359789 0.847147 121.602913
[L_mid_hand01]
28 103.859421 1.038730 8.195221 130.544373 -67.584534 -38.866943 104.187431
29 103.859421 1.038730 8.195221 130.544373 -67.584534 -38.866943 104.187431
[L_mid_hand02]
28 105.572853 -4.139662 -10.864139 -168.923172 43.409309 -73.498886 106.211075
29 105.572853 -4.139662 -10.864139 -168.923172 43.409309 -73.498886 106.211075
[L_mid_hand03]
28 104.641464 17.579376 -3.913581 -6.012627 17.808174 74.893669 106.179977
29 104.641464 17.579376 -3.913581 -6.012627 17.808174 74.893669 106.179977
[null_rope02_connect]
28 328.732849 0.000179 -0.000119 -123.736763 41.490059 18.218470 328.732849
29 328.732849 0.000179 -0.000119 -123.736763 41.490059 18.218470 328.732849
[Rope2_Seg01]
28 -0.000042 0.000134 0.000153 -54.436760 46.060566 44.522072 0.000207
29 -0.000041 0.000134 0.000153 -55.459530 45.218102 42.659603 0.000207
[Rope2_Seg02]
28 139.999741 -0.000060 -0.000119 -0.131211 -8.418177 3.220262 139.999756
29 139.999741 -0.000060 -0.000119 -0.190095 -8.749143 3.543432 139.999756
[Rope2_Seg03]
28 140.000107 0.000030 0.000000 -0.394037 -10.565125 4.385109 140.000107
29 140.000107 0.000030 0.000000 -0.453748 -11.074896 4.797307 140.000107
[Rope2_Seg04]
28 139.999802 0.000000 -0.000060 -1.809951 -20.122923 7.984446 139.999802
29 139.999802 0.000000 -0.000060 -1.744027 -19.975153 8.411635 139.999802
[Rope2_Seg05]
28 139.999985 -0.000060 0.000119 -3.685142 -19.907444 5.960674 139.999985
29 139.999985 -0.000060 0.000119 -3.176352 -19.558102 6.561554 139.999985
[Rope2_Seg06]
28 139.999893 -0.000030 -0.000119 -1.648065 -6.276457 1.538529 139.999893
29 139.999893 -0.000030 -0.000119 -1.363568 -6.356043 1.835998 139.999893
[Rope2_Seg07]
28 139.999893 0.000060 -0.000060 -1.070991 -3.285927 0.739942 139.999893
29 139.999893 0.000060 -0.000060 -0.880508 -3.320518 0.902971 139.999893
[Rope2_Seg09]
28 121.338966 0.000089 -0.000060 33.793236 -1.359788 -0.847141 121.338966
29 121.338966 0.000089 -0.000060 33.793236 -1.359788 -0.847141 121.338966
[R_mid_hand01]
28 104.680779 11.144459 -10.335981 -16.212063 45.237247 70.462852 105.778534
29 104.680779 11.144459 -10.335981 -16.212063 45.237247 70.462852 105.778534
[R_mid_hand02]
28 104.070427 2.443552 8.231699 49.067368 -67.749771 39.286453 104.424065
29 104.070427 2.443552 8.231699 49.067368 -67.749771 39.286453 104.424065
[R_mid_hand03]
28 106.028137 -11.221827 -5.996406 -177.101105 15.551026 -76.585571 106.788818
29 106.028137 -11.221827 -5.996406 -177.101105 15.551026 -76.585571 106.788818
[spine02]
28 129.756927 0.001550 0.000119 -1.023899 -3.926965 6.770993 129.756927
29 129.756927 0.001550 0.000119 -1.023899 -3.926965 6.770993 129.756927
[spine03]
28 78.613846 0.087372 -4.898873 1.040681 4.146420 4.212376 78.766380
29 78.613846 0.087372 -4.898873 1.040681 4.146420 4.212376 78.766380
[pelvis]
28 169.435242 0.051022 0.000000 0.019518 -0.190233 -10.721436 169.435257
29 169.435242 0.051022 0.000000 0.019518 -0.190233 -10.721436 169.435257
[null_rope03_connect]
28 -1.257226 -2.466202 137.391083 -148.996323 -87.995132 -107.160522 137.418976
29 -1.257226 -2.466202 137.391083 -148.996323 -87.995132 -107.160522 137.418976
[null_rope04_connect]
28 -1.259640 -2.480268 -137.844437 -148.996323 -87.995132 -107.160522 137.872513
29 -1.259640 -2.480268 -137.844437 -148.996323 -87.995132 -107.160522 137.872513
[Rope3_Seg01]
28 0.000000 0.000000 0.000000 -137.772446 -41.325905 -72.544815 0.000000
29 0.000000 0.000000 0.000000 -138.512939 -40.671627 -71.088417 0.000000
[Rope3_Seg02]
28 139.999924 -0.000119 0.000060 -15.508930 3.382129 -36.845463 139.999924
29 139.999924 -0.000119 0.000060 -15.989471 3.921704 -36.180229 139.999924
[Rope3_Seg03]
28 139.999924 -0.000119 0.000119 -60.620205 14.318659 -46.854912 139.999924
29 139.999924 -0.000119 0.000119 -61.238930 16.064121 -47.391335 139.999924
[Rope3_Seg04]
28 139.999924 0.000119 0.000000 -25.758192 27.447309 -7.725076 139.999924
29 139.999924 0.000119 0.000000 -25.003241 28.054085 -7.960830 139.999924
[Rope3_Seg05]
28 139.999924 -0.000238 0.000060 -7.653625 29.877157 6.052538 139.999924
29 139.999924 -0.000238 0.000060 -7.635822 29.343279 4.766022 139.999924
[Rope3_Seg06]
28 139.999893 -0.000119 -0.000060 -0.206778 11.275609 4.032425 139.999893
29 139.999893 -0.000119 -0.000060 -0.252363 10.886244 3.435935 139.999893
[Rope3_Seg07]
28 139.999771 0.000060 -0.000119 0.540935 5.450416 1.965955 139.999771
29 139.999771 0.000060 -0.000119 0.513126 5.342812 1.728850 139.999771
[Rope3_Seg08]
28 139.999985 -0.000060 0.000000 0.646849 2.962088 1.034266 139.999985
29 139.999985 -0.000060 0.000000 0.628332 2.916749 0.906541 139.999985
[Rope3_Seg09]
28 90.185997 -0.000179 -0.000060 89.793228 -1.359877 -0.847183 90.185997
29 90.185997 -0.000179 -0.000060 89.793228 -1.359877 -0.847183 90.185997
[R_rear_hand01]
28 103.366196 -6.073594 -10.757982 -177.714203 24.565960 -73.910950 104.101845
29 103.366196 -6.073594 -10.757982 -177.714203 24.565960 -73.910950 104.101845
[R_rear_hand02]
28 100.509819 12.039542 -7.992327 -12.874829 36.868488 72.167213 101.543350
29 100.509819 12.039542 -7.992327 -12.874829 36.868488 72.167213 101.543350
[R_rear_hand03]
28 101.539970 5.215704 5.435467 71.484581 -71.816628 21.513813 101.819031
29 101.539970 5.215704 5.435467 71.484581 -71.816628 21.513813 101.819031
[Rope4_Seg01]
28 -0.000010 -0.000008 -0.000153 54.549679 -30.838444 -109.363594 0.000153
29 -0.000010 -0.000005 -0.000153 54.587132 -30.103151 -109.832085 0.000153
[Rope4_Seg02]
28 139.999985 0.000060 0.000119 11.804315 -37.165054 6.583243 139.999985
29 139.999985 0.000060 0.000119 11.477040 -36.269611 6.832473 139.999985
[Rope4_Seg03]
28 139.999924 0.000000 -0.000238 52.839603 -43.632481 22.818825 139.999924
29 139.999924 0.000000 -0.000238 52.388985 -44.676376 24.699986 139.999924
[Rope4_Seg04]
28 139.999985 0.000000 0.000119 24.482740 -2.017694 24.915773 139.999985
29 139.999985 0.000000 0.000119 23.763309 -1.883506 25.357580 139.999985
[Rope4_Seg05]
28 139.999802 -0.000060 -0.000119 15.866960 11.981187 33.857510 139.999802
29 139.999802 -0.000060 -0.000119 15.162560 11.211699 33.358131 139.999802
[Rope4_Seg06]
28 139.999924 0.000000 0.000060 2.335733 9.372769 14.719925 139.999924
29 139.999924 0.000000 0.000060 2.229858 8.767768 14.507993 139.999924
[Rope4_Seg07]
28 139.999802 0.000000 0.000000 0.071675 3.861287 5.746737 139.999802
29 139.999802 0.000000 0.000000 0.076585 3.672750 5.731606 139.999802
[Rope4_Seg08]
28 139.999924 0.000000 0.000119 -1.685355 2.002681 2.992679 139.999924
29 139.999924 0.000000 0.000119 -1.680319 1.910984 2.991594 139.999924
[Rope4_Seg09]
28 90.185791 0.000060 0.000060 -135.617828 2.228885 0.850567 90.185791
29 90.185791 0.000060 0.000060 -135.617828 2.228885 0.850567 90.185791
[L_rear_hand01]
28 101.696655 -8.392275 -7.654577 -12.874829 -36.868488 107.832764 102.329041
29 101.696655 -8.392275 -7.654577 -12.874829 -36.868488 107.832764 102.329041
[L_rear_hand02]
28 102.726799 -1.568258 5.773216 71.484581 71.816628 158.486160 102.900848
29 102.726799 -1.568258 5.773216 71.484581 71.816628 158.486160 102.900848
[L_rear_hand03]
28 104.552910 9.721220 -10.420293 -177.714203 -24.565960 -106.089035 105.519653
29 104.552910 9.721220 -10.420293 -177.714203 -24.565960 -106.089035 105.519653
